<svg width="49" height="49" viewBox="0 0 49 49" fill="none" xmlns="http://www.w3.org/2000/svg">
<path d="M46.9224 15.6462L32.5141 1.23781C30.8636 -0.412697 28.178 -0.412509 26.5277 1.23781L8.44788 19.3177H4.23302C1.89893 19.3177 0 21.2167 0 23.5508V43.9273C0 46.2614 1.89893 48.1604 4.23302 48.1604H36.6504C38.9845 48.1604 40.8834 46.2614 40.8834 43.9273V27.6716L46.9224 21.6325C48.5729 19.9821 48.5729 17.2967 46.9224 15.6462ZM28.5232 3.23326C28.7983 2.9582 29.1597 2.82058 29.521 2.82058C29.8823 2.82058 30.2436 2.9582 30.5186 3.23326L37.9429 10.6575L29.2827 19.3177H12.4387L28.5232 3.23326ZM38.0614 43.9273C38.0614 44.7054 37.4284 45.3383 36.6504 45.3383H4.23302C3.45499 45.3383 2.82201 44.7054 2.82201 43.9273V23.5508C2.82201 22.7727 3.45499 22.1398 4.23302 22.1398H36.6504C37.4284 22.1398 38.0614 22.7727 38.0614 23.5508V43.9273ZM37.2246 19.3577C37.0366 19.3321 36.8452 19.3177 36.6504 19.3177H33.2736L39.9383 12.6529L41.9339 14.6484L37.2246 19.3577ZM44.927 19.6372L40.8834 23.6808V23.5508C40.8834 22.4782 40.4817 21.4981 39.8218 20.7514L43.9293 16.6439L44.927 17.6415C45.4772 18.1917 45.4772 19.087 44.927 19.6372Z" fill="#999999"/>
<path d="M5.64404 38.2449H10.8948V41.067H5.64404V38.2449Z" fill="#999999"/>
<path d="M13.7588 38.2449H19.0095V41.067H13.7588V38.2449Z" fill="#999999"/>
<path d="M21.8735 38.2449H27.1244V41.067H21.8735V38.2449Z" fill="#999999"/>
<path d="M29.9888 38.2449H35.2395V41.067H29.9888V38.2449Z" fill="#999999"/>
<path d="M15.1699 26.4106H5.64404V34.8766H15.1699V26.4106ZM12.3479 32.0546H8.46605V29.2326H12.3479V32.0546Z" fill="#999999"/>
</svg>
