<svg width="40" height="40" viewBox="0 0 40 40" fill="none" xmlns="http://www.w3.org/2000/svg">
<path d="M15.6663 34C16.4027 34 16.9997 33.403 16.9997 32.6667C16.9997 31.9303 16.4027 31.3333 15.6663 31.3333C14.93 31.3333 14.333 31.9303 14.333 32.6667C14.333 33.403 14.93 34 15.6663 34Z" stroke="#222222" stroke-width="2" stroke-linecap="round" stroke-linejoin="round"/>
<path d="M30.3333 34C31.0697 34 31.6667 33.403 31.6667 32.6667C31.6667 31.9303 31.0697 31.3333 30.3333 31.3333C29.597 31.3333 29 31.9303 29 32.6667C29 33.403 29.597 34 30.3333 34Z" stroke="#222222" stroke-width="2" stroke-linecap="round" stroke-linejoin="round"/>
<path d="M5 6H10.3333L13.9067 23.8533C14.0286 24.4672 14.3625 25.0186 14.8501 25.4111C15.3376 25.8035 15.9476 26.012 16.5733 26H29.5333C30.1591 26.012 30.7691 25.8035 31.2566 25.4111C31.7441 25.0186 32.0781 24.4672 32.2 23.8533L34.3333 12.6667H11.6667" stroke="#222222" stroke-width="2" stroke-linecap="round" stroke-linejoin="round"/>
</svg>
