<svg width="130" height="40" viewBox="0 0 130 40" fill="none" xmlns="http://www.w3.org/2000/svg">
<rect width="130" height="40" fill="#E5E5E5"/>
<g id="MAINPAGE">
<rect width="1440" height="4795" transform="translate(-151 -24)" fill="white"/>
<g id="header">
<rect x="-151.5" y="-24.5" width="1441" height="81" fill="white"/>
<rect x="-151.5" y="-24.5" width="1441" height="81" stroke="#EFEFEF"/>
<g id="logo">
<g id="Vector">
<path d="M35.4202 37.7071C35.6974 37.7071 35.9396 37.6264 36.1468 37.4649C36.354 37.3035 36.4688 37.1016 36.4912 36.8594H37.2263C37.2123 37.1097 37.1227 37.3479 36.9575 37.5739C36.7922 37.8 36.571 37.9803 36.2938 38.1148C36.0194 38.2494 35.7282 38.3167 35.4202 38.3167C34.8014 38.3167 34.3085 38.1189 33.9417 37.7233C33.5777 37.325 33.3957 36.7814 33.3957 36.0924V35.9673C33.3957 35.5421 33.4769 35.164 33.6393 34.833C33.8017 34.502 34.0341 34.245 34.3365 34.062C34.6417 33.879 35.0016 33.7875 35.416 33.7875C35.9256 33.7875 36.3484 33.9341 36.6844 34.2275C37.0233 34.5208 37.2039 34.9016 37.2263 35.3699H36.4912C36.4688 35.0873 36.3568 34.8559 36.1552 34.6755C35.9564 34.4925 35.71 34.4011 35.416 34.4011C35.0212 34.4011 34.7146 34.5383 34.4961 34.8128C34.2805 35.0846 34.1727 35.4789 34.1727 35.9956V36.1368C34.1727 36.6401 34.2805 37.0276 34.4961 37.2994C34.7118 37.5712 35.0198 37.7071 35.4202 37.7071Z" fill="black"/>
<path d="M41.4362 37.142L42.4946 33.8682H43.3263L41.4992 38.9101C41.2164 39.6367 40.767 40 40.1509 40L40.0039 39.9879L39.7141 39.9354V39.3299L39.9241 39.3461C40.1873 39.3461 40.3918 39.2949 40.5374 39.1927C40.6858 39.0904 40.8076 38.9034 40.9028 38.6315L41.075 38.1875L39.4537 33.8682H40.3021L41.4362 37.142Z" fill="black"/>
<path d="M48.4897 37.2469L50.0353 33.8682H51.0056V38.2359H50.2285V35.059L48.7585 38.2359H48.2208L46.7214 34.9904V38.2359H45.9443V33.8682H46.9524L48.4897 37.2469Z" fill="black"/>
<path d="M55.5221 36.375H54.9551V38.2359H54.1739V33.8682H54.9551V35.717H55.4633L56.9922 33.8682H57.933L56.1353 35.9673L58.0842 38.2359H57.0972L55.5221 36.375Z" fill="black"/>
<path d="M63.5416 33.8682H64.3186V38.2359H63.5416V35.051L61.4457 38.2359H60.6687V33.8682H61.4457V37.0572L63.5416 33.8682Z" fill="black"/>
<path d="M71.3608 37.6264L71.6297 37.3075C71.9321 36.9307 72.1043 36.3656 72.1463 35.6121L72.2177 33.8682H75.1452V37.6264H75.729V39.5196H74.952V38.2359H71.7809V39.5196H71.0038L71.008 37.6264H71.3608ZM72.2807 37.6264H74.3682V34.5585H72.9695L72.9233 35.6C72.8757 36.4692 72.6615 37.1447 72.2807 37.6264Z" fill="black"/>
<path d="M82.1651 33.8682V38.2359H81.3838V34.4858H79.8382L79.7458 36.1207C79.6954 36.8715 79.5638 37.4084 79.351 37.7314C79.1409 38.0543 78.8063 38.2225 78.3471 38.2359H78.0363V37.578L78.2589 37.5618C78.5109 37.5349 78.6915 37.395 78.8007 37.142C78.9099 36.889 78.9799 36.4208 79.0107 35.7372L79.0947 33.8682H82.1651Z" fill="black"/>
<path d="M88.7355 33.8682V38.2359H87.9543V36.5365H86.7824L85.7114 38.2359H84.8713L86.0138 36.4235C85.7226 36.3212 85.4986 36.1638 85.3418 35.9512C85.1878 35.7359 85.1108 35.4856 85.1108 35.2003C85.1108 34.802 85.2662 34.4818 85.577 34.2396C85.8878 33.9947 86.3036 33.8709 86.8244 33.8682H88.7355ZM85.892 35.2084C85.892 35.421 85.9676 35.5932 86.1188 35.7251C86.27 35.8543 86.4702 35.9202 86.7194 35.9229H87.9543V34.4737H86.837C86.5486 34.4737 86.319 34.5423 86.1482 34.6796C85.9774 34.8141 85.892 34.9904 85.892 35.2084Z" fill="black"/>
<path d="M99.4403 36.3387H98.8942V38.2359H98.1172V36.3387H97.5712L96.2985 38.2359H95.3157L96.9412 35.9754L95.4711 33.8682H96.4119L97.5838 35.6767H98.1172V33.8682H98.8942V35.6767H99.4235L100.604 33.8682H101.545L100.07 35.9794L101.696 38.2359H100.713L99.4403 36.3387Z" fill="black"/>
<path d="M107.191 33.8682H107.968V38.2359H107.191V35.051L105.095 38.2359H104.318V33.8682H105.095V37.0572L107.191 33.8682Z" fill="black"/>
<path d="M113.564 35.0631C113.564 34.8585 113.483 34.6971 113.32 34.5787C113.158 34.4576 112.935 34.397 112.653 34.397C112.378 34.397 112.149 34.4656 111.964 34.6029C111.782 34.7401 111.691 34.9016 111.691 35.0873H110.918C110.918 34.7078 111.083 34.397 111.413 34.1548C111.744 33.9126 112.157 33.7915 112.653 33.7915C113.185 33.7915 113.599 33.9018 113.896 34.1225C114.193 34.3405 114.341 34.6527 114.341 35.059C114.341 35.2555 114.279 35.4358 114.156 35.6C114.033 35.7641 113.858 35.8946 113.631 35.9915C114.16 36.1638 114.425 36.5028 114.425 37.0088C114.425 37.4098 114.264 37.7273 113.942 37.9614C113.62 38.1956 113.19 38.3126 112.653 38.3126C112.129 38.3126 111.696 38.1902 111.355 37.9453C111.016 37.6977 110.846 37.364 110.846 36.9442H111.619C111.619 37.1568 111.717 37.3398 111.913 37.4932C112.112 37.6439 112.359 37.7192 112.653 37.7192C112.949 37.7192 113.189 37.6533 113.371 37.5214C113.553 37.3896 113.644 37.2187 113.644 37.0088C113.644 36.7639 113.567 36.589 113.413 36.484C113.262 36.3764 113.025 36.3225 112.703 36.3225H111.926V35.6928H112.77C113.299 35.6793 113.564 35.4694 113.564 35.0631Z" fill="black"/>
<path d="M120.995 38.2359H120.218V36.371H118.131V38.2359H117.35V33.8682H118.131V35.7614H120.218V33.8682H120.995V38.2359Z" fill="black"/>
<path d="M127.037 33.8682H127.814V38.2359H127.037V35.051L124.941 38.2359H124.164V33.8682H124.941V37.0572L127.037 33.8682Z" fill="black"/>
<path d="M15.7822 21.0899C15.7822 19.9273 15.3538 19.0312 14.4969 18.4015C13.6527 17.7717 12.1217 17.1359 9.90404 16.4941C7.68634 15.8523 5.92226 15.1378 4.61181 14.3506C2.10429 12.8368 0.850538 10.8629 0.850538 8.4287C0.850538 6.29731 1.75148 4.54133 3.55336 3.16076C5.36784 1.7802 7.71784 1.08992 10.6034 1.08992C12.5187 1.08992 14.226 1.429 15.7255 2.10718C17.225 2.78535 18.4031 3.75416 19.26 5.01362C20.1168 6.26097 20.5452 7.64759 20.5452 9.17348H15.7822C15.7822 7.79292 15.3286 6.71511 14.4213 5.94005C13.5267 5.15289 12.2414 4.75931 10.5656 4.75931C9.0031 4.75931 7.78715 5.08023 6.91771 5.72207C6.06087 6.36391 5.63245 7.26007 5.63245 8.41054C5.63245 9.37935 6.09867 10.1907 7.03111 10.8447C7.96356 11.4865 9.50082 12.1163 11.6429 12.7339C13.785 13.3394 15.505 14.0357 16.8029 14.8229C18.1007 15.5979 19.052 16.4941 19.6569 17.5114C20.2617 18.5165 20.5641 19.6972 20.5641 21.0536C20.5641 23.2576 19.6821 25.0136 17.918 26.3215C16.1665 27.6173 13.785 28.2652 10.7735 28.2652C8.78259 28.2652 6.94921 27.914 5.27334 27.2116C3.61006 26.4971 2.3122 25.5162 1.37976 24.2688C0.459921 23.0215 0 21.5683 0 19.9092H4.78191C4.78191 21.4108 5.29854 22.5734 6.33178 23.3969C7.36503 24.2204 8.8456 24.6322 10.7735 24.6322C12.4368 24.6322 13.6842 24.3112 14.5158 23.6694C15.3601 23.0154 15.7822 22.1556 15.7822 21.0899Z" fill="black"/>
<path d="M42.2245 18.2743C42.2245 21.314 41.5063 23.7421 40.0698 25.5586C38.6333 27.363 36.7054 28.2652 34.2861 28.2652C32.0432 28.2652 30.2477 27.5568 28.8994 26.1399V35.4587H24.3065V8.24705H28.5403L28.7293 10.2452C30.0775 8.67091 31.9109 7.88374 34.2294 7.88374C36.7243 7.88374 38.6774 8.7799 40.0887 10.5722C41.5126 12.3524 42.2245 14.8289 42.2245 18.0018V18.2743ZM37.6505 17.8928C37.6505 15.931 37.241 14.3748 36.4219 13.2243C35.6155 12.0739 34.4562 11.4986 32.9442 11.4986C31.0667 11.4986 29.7184 12.2434 28.8994 13.733V22.4523C29.731 23.9782 31.0919 24.7411 32.982 24.7411C34.4436 24.7411 35.584 24.178 36.403 23.0518C37.2347 21.9134 37.6505 20.1938 37.6505 17.8928Z" fill="black"/>
<path d="M58.517 25.9764C57.1688 27.5023 55.2535 28.2652 52.7712 28.2652C50.5535 28.2652 48.8713 27.6415 47.7246 26.3942C46.5906 25.1468 46.0236 23.3424 46.0236 20.9809V8.24705H50.6165V20.9264C50.6165 23.4211 51.6938 24.6685 53.8485 24.6685C56.0788 24.6685 57.5846 23.8995 58.3658 22.3615V8.24705H62.9587V27.9019H58.6304L58.517 25.9764Z" fill="black"/>
<path d="M73.392 3.46957V8.24705H77.002V11.5168H73.392V22.4886C73.392 23.2395 73.5432 23.7844 73.8456 24.1235C74.1606 24.4505 74.715 24.614 75.5089 24.614C76.0381 24.614 76.5736 24.5534 77.1154 24.4323V27.8474C76.0696 28.1259 75.0616 28.2652 74.0913 28.2652C70.5631 28.2652 68.7991 26.3942 68.7991 22.6521V11.5168H65.4347V8.24705H68.7991V3.46957H73.392Z" fill="black"/>
<path d="M84.7892 8.24705L84.9215 10.5177C86.4336 8.76173 88.4181 7.88374 90.8753 7.88374C95.1342 7.88374 97.3015 10.2271 97.3771 14.9137V27.9019H92.7842V15.168C92.7842 13.9207 92.5007 13.0003 91.9337 12.4069C91.3793 11.8014 90.4657 11.4986 89.1931 11.4986C87.3408 11.4986 85.961 12.304 85.0538 13.9146V27.9019H80.4609V8.24705H84.7892Z" fill="black"/>
<path d="M106.96 27.9019H102.367V8.24705H106.96V27.9019ZM102.083 3.1426C102.083 2.46443 102.304 1.9013 102.745 1.45322C103.199 1.00515 103.841 0.781108 104.673 0.781108C105.505 0.781108 106.147 1.00515 106.601 1.45322C107.054 1.9013 107.281 2.46443 107.281 3.1426C107.281 3.80866 107.054 4.36573 106.601 4.81381C106.147 5.24977 105.505 5.46776 104.673 5.46776C103.841 5.46776 103.199 5.24977 102.745 4.81381C102.304 4.36573 102.083 3.80866 102.083 3.1426Z" fill="black"/>
<path d="M118.622 19.4732L116.58 21.4896V27.9019H111.988V0H116.58V16.0945L118.017 14.3688L123.668 8.24705H129.187L121.589 16.4396L130 27.9019H124.689L118.622 19.4732Z" fill="black"/>
</g>
</g>
</g>
</g>
</svg>
