<svg width="26" height="42" viewBox="0 0 26 42" fill="none" xmlns="http://www.w3.org/2000/svg">
<path d="M13 0C5.8188 0 0 5.7954 0 12.974C0 25.3864 13 41.574 13 41.574C13 41.574 26 25.3838 26 12.974C26 5.798 20.1812 0 13 0ZM13 20.1526C11.1382 20.1526 9.35262 19.413 8.03611 18.0965C6.7196 16.78 5.98 14.9944 5.98 13.1326C5.98 11.2708 6.7196 9.48522 8.03611 8.16871C9.35262 6.85221 11.1382 6.1126 13 6.1126C14.8618 6.1126 16.6474 6.85221 17.9639 8.16871C19.2804 9.48522 20.02 11.2708 20.02 13.1326C20.02 14.9944 19.2804 16.78 17.9639 18.0965C16.6474 19.413 14.8618 20.1526 13 20.1526Z" fill="#3561A4"/>
</svg>
