<svg width="52" height="52" viewBox="0 0 52 52" fill="none" xmlns="http://www.w3.org/2000/svg">
<path d="M52 34.6418C51.7463 33.597 49.9707 24.194 49.4634 22.8881C48.4488 19.4925 45.9122 15.8358 42.6146 12.9627C39.3171 9.82836 36.0195 8 33.2293 8H6.84878C5.58049 8 4.3122 9.04478 4.3122 10.6119V14.5299H2.53659C2.02927 14.5299 1.52195 15.0522 1.52195 15.8358C1.52195 16.6194 2.02927 17.1418 2.79024 17.1418H4.56585V20.0149H1.26829C0.507317 20.0149 0 20.5373 0 21.3209C0 22.1045 0.507317 22.6269 1.26829 22.6269H4.56585V35.1642C4.56585 36.4701 5.58049 37.7761 7.10244 37.7761H10.1463C10.6537 40.9104 13.1902 43.2612 16.2341 43.2612C19.278 43.2612 22.0683 40.9104 22.322 37.7761H33.4829C33.9902 40.9104 36.5268 43.2612 39.5707 43.2612C42.6146 43.2612 45.1512 40.9104 45.6585 37.7761H49.4634C50.9854 37.5149 52 36.4701 52 34.6418C52 34.903 52 34.903 52 34.6418ZM47.1805 23.4104H34.7512V10.6119C39.0634 11.9179 45.1512 17.9254 47.1805 23.4104ZM15.9805 40.3881C13.9512 40.3881 12.1756 38.5597 12.1756 36.4701C12.1756 34.3806 13.9512 32.5522 15.9805 32.5522C18.0098 32.5522 19.7854 34.3806 19.7854 36.4701C20.039 38.8209 18.2634 40.3881 15.9805 40.3881ZM39.5707 40.3881C37.5415 40.3881 35.7659 38.5597 35.7659 36.4701C35.7659 34.3806 37.5415 32.5522 39.5707 32.5522C41.6 32.5522 43.3756 34.3806 43.3756 36.4701C43.3756 38.8209 41.6 40.3881 39.5707 40.3881ZM49.4634 35.1642H45.6585C44.8976 32.291 42.6146 30.2015 39.5707 30.2015C36.5268 30.2015 34.2439 32.291 33.4829 35.1642H22.0683C21.561 32.291 19.0244 30.2015 15.9805 30.2015C12.9366 30.2015 10.6537 32.291 9.89268 35.1642H6.84878V22.3657H21.561C22.322 22.3657 22.8293 21.8433 22.8293 21.3209C22.8293 20.5373 22.322 20.0149 21.561 20.0149H6.84878V17.1418H13.6976C14.4585 17.1418 14.9659 16.6194 14.9659 15.8358C14.9659 15.0522 14.4585 14.5299 13.6976 14.5299H6.84878V10.6119H32.2146V24.7164C32.2146 25.5 32.722 26.0224 33.4829 26.0224H47.6878C48.1951 28.1119 48.9561 32.0299 49.4634 35.1642Z" fill="#999999"/>
</svg>
