<svg width="44" height="44" viewBox="0 0 44 44" fill="none" xmlns="http://www.w3.org/2000/svg">
<g clip-path="url(#clip0_5821_341)">
<path d="M33.93 20.9289C32.904 20.6033 31.8065 21.1718 31.4818 22.1954C30.7953 24.3563 29.6257 26.2701 28.0036 27.8847C25.3357 30.5407 21.789 32.0038 18.0161 32.0038C14.2439 32.0038 10.6972 30.5407 8.02926 27.8847C2.52312 22.4016 2.52312 13.4793 8.02958 7.9962C10.6975 5.34024 14.2442 3.87682 18.0164 3.87682C21.7893 3.87682 25.336 5.33991 28.0039 7.99588C29.617 9.60277 30.7836 11.5053 31.4711 13.6523C31.7987 14.6741 32.8975 15.2403 33.9223 14.9131C34.949 14.5869 35.5157 13.4941 35.1884 12.4723C34.3223 9.76716 32.7912 7.26948 30.7623 5.24919C23.7355 -1.74973 12.299 -1.74973 5.27086 5.24919C-1.75728 12.2475 -1.75728 23.6334 5.27086 30.6317C8.78525 34.1312 13.4 35.8809 18.0167 35.8809C22.6315 35.8809 27.2482 34.1305 30.762 30.6324C32.8019 28.6018 34.3368 26.0896 35.2017 23.3667C35.527 22.3441 34.9574 21.2525 33.93 20.9289Z" fill="white"/>
<path d="M17.642 24.807C18.7269 24.807 19.6063 23.9313 19.6063 22.851V19.8968H22.5731C23.658 19.8968 24.5377 19.0212 24.5377 17.9409C24.5377 16.8606 23.6583 15.985 22.5731 15.985H19.6063V13.0308C19.6063 11.9505 18.7269 11.0748 17.642 11.0748C16.5571 11.0748 15.6777 11.9505 15.6777 13.0308V15.985H12.7109C11.6261 15.985 10.7463 16.8606 10.7463 17.9409C10.7463 19.0212 11.6257 19.8968 12.7109 19.8968H15.6777V22.851C15.6777 23.931 16.5575 24.807 17.642 24.807Z" fill="white"/>
<path d="M43.4284 40.6839L34.7219 32.0137C33.9598 31.2549 32.7253 31.2549 31.9632 32.0137C31.2011 32.772 31.2011 34.0019 31.9632 34.7608L40.6697 43.4309C41.0506 43.8102 41.5498 44 42.0489 44C42.5481 44 43.0472 43.8102 43.4281 43.4309C44.1902 42.6727 44.1902 41.4428 43.4284 40.6839Z" fill="white"/>
</g>
<defs>
<clipPath id="clip0_5821_341">
<rect width="44" height="44" fill="white"/>
</clipPath>
</defs>
</svg>
